<svg xmlns="http://www.w3.org/2000/svg" xmlns:xlink="http://www.w3.org/1999/xlink" width="500" zoomAndPan="magnify" viewBox="0 0 375 374.999991" height="500" preserveAspectRatio="xMidYMid meet" version="1.0"><defs><clipPath id="f99ecc7128"><path d="M 86 250 L 259 250 L 259 300.1875 L 86 300.1875 Z M 86 250 " clip-rule="nonzero"/></clipPath><clipPath id="a939d574ff"><path d="M 31.652344 172 L 103 172 L 103 197 L 31.652344 197 Z M 31.652344 172 " clip-rule="nonzero"/></clipPath><clipPath id="62d15ccb93"><path d="M 271 180 L 343.652344 180 L 343.652344 203 L 271 203 Z M 271 180 " clip-rule="nonzero"/></clipPath></defs><path fill="#000000" d="M 233.800781 100.039062 C 231.078125 103.375 228.164062 106.609375 225.65625 110.074219 C 222.367188 114.632812 219.644531 119.539062 216.183594 123.980469 C 213.746094 127.101562 210.675781 129.90625 207.519531 132.4375 C 204.316406 135.011719 200.511719 135.269531 196.90625 132.867188 C 193.675781 130.710938 190.1875 129.804688 186.152344 129.734375 C 183.453125 129.675781 180.816406 128.484375 178.089844 128.023438 C 170.074219 126.671875 162.085938 126.226562 154.027344 128.078125 C 151.203125 128.726562 148.074219 128.8125 145.160156 128.496094 C 143.503906 128.324219 141.441406 127.175781 140.546875 125.894531 C 134.808594 117.710938 126.835938 110.96875 122.265625 102.035156 C 121.574219 100.683594 120.289062 99.59375 119.222656 98.3125 C 115.863281 98.917969 115.445312 101.417969 114.234375 103.386719 C 110.6875 109.125 107.027344 114.792969 103.378906 120.457031 C 102.628906 121.636719 101.765625 122.746094 100.941406 123.878906 C 97.425781 128.710938 94.035156 133.628906 90.332031 138.347656 C 89.121094 139.886719 87.230469 141.007812 85.515625 142.160156 C 83.625 143.425781 81.621094 144.820312 79.1875 142.992188 C 76.75 141.167969 75.8125 138.808594 77.238281 136.21875 C 79.820312 131.53125 81.796875 126.167969 85.660156 122.558594 C 90.761719 117.785156 93.574219 111.929688 97.25 106.539062 C 101.257812 100.628906 104.085938 94.042969 107.257812 87.671875 C 108.308594 85.554688 108.800781 83.210938 109.550781 80.96875 C 111.207031 75.964844 116.730469 74.484375 120.996094 77.964844 C 121.617188 78.480469 122.195312 79.113281 122.582031 79.789062 C 126.160156 85.960938 129.632812 92.1875 133.28125 98.339844 C 134.5625 100.511719 136.0625 102.625 137.75 104.554688 C 139.609375 106.679688 142.148438 108.351562 143.761719 110.59375 C 145.710938 113.296875 148.21875 113.640625 151.402344 113.757812 C 162.261719 114.1875 173.117188 114.804688 183.945312 115.582031 C 186.65625 115.769531 189.324219 116.703125 191.960938 117.46875 C 198.476562 119.378906 202.011719 118.34375 205.472656 113.066406 C 211.394531 104.019531 217.234375 94.960938 225.511719 87.425781 C 227.558594 85.554688 228.480469 82.710938 230.140625 80.4375 C 233.542969 75.734375 237.59375 75.304688 241.53125 79.617188 C 243.347656 81.617188 244.425781 84.335938 245.21875 86.894531 C 248.378906 97.003906 251.175781 107.214844 254.316406 117.324219 C 255.660156 121.621094 257.5625 125.777344 259.089844 130.035156 C 259.609375 131.503906 260.113281 133.085938 260.027344 134.59375 C 259.839844 137.972656 256.984375 139.699219 253.382812 138.9375 C 250.023438 138.234375 247.46875 136.578125 246.445312 133.488281 C 243.765625 125.289062 241.210938 117.0625 238.546875 108.867188 C 237.609375 105.976562 236.496094 103.144531 235.472656 100.28125 C 234.898438 100.195312 234.347656 100.125 233.800781 100.039062 Z M 233.800781 100.039062 " fill-opacity="1" fill-rule="nonzero"/><g clip-path="url(#f99ecc7128)"><path fill="#000000" d="M 192.710938 299.28125 C 188.917969 299.554688 185.113281 299.839844 181.304688 300.070312 C 180.253906 300.128906 179.144531 300.144531 178.121094 299.914062 C 168.863281 297.742188 159.636719 295.46875 150.378906 293.328125 C 146.054688 292.320312 141.5 291.976562 137.375 290.550781 C 129.230469 287.730469 121.226562 284.496094 113.328125 281.132812 C 110.472656 279.921875 107.890625 278.054688 105.453125 276.171875 C 100.726562 272.519531 96.070312 268.777344 91.65625 264.824219 C 89.882812 263.226562 88.644531 261.042969 87.519531 258.957031 C 86.09375 256.296875 86.839844 252.757812 88.757812 251.363281 C 90.664062 249.96875 94.136719 250.402344 97.007812 252.472656 C 98.015625 253.191406 98.996094 253.980469 99.804688 254.886719 C 106.535156 262.523438 114.957031 268.03125 125.035156 271.253906 C 133.871094 274.070312 142.855469 276.53125 151.765625 279.203125 C 163.585938 282.769531 176.058594 282.957031 188.199219 284.753906 C 193.015625 285.460938 198.492188 284.351562 203.25 282.929688 C 214.382812 279.609375 225.324219 275.738281 236.195312 271.769531 C 239.078125 270.71875 241.5 268.535156 244.039062 266.765625 C 248.625 263.574219 250.972656 263.671875 255.140625 267.398438 C 259.089844 270.9375 260 275.609375 256.828125 278.929688 C 253.886719 282.023438 250.410156 284.625 245.625 285.1875 C 243.980469 285.386719 242.25 285.734375 240.78125 286.410156 C 235.691406 288.738281 230.847656 291.570312 225.625 293.601562 C 215.1875 297.640625 204.144531 299.582031 192.710938 299.28125 Z M 192.710938 299.28125 " fill-opacity="1" fill-rule="nonzero"/></g><path fill="#000000" d="M 177.558594 247.410156 C 174.632812 248.429688 171.878906 249.394531 169.125 250.359375 C 165.058594 251.78125 161.164062 251.636719 157.5625 249.222656 C 155.136719 247.609375 153.941406 244.347656 154.707031 241.960938 C 155.527344 239.386719 157.820312 239.140625 160.226562 238.765625 C 162.492188 238.421875 164.984375 238.105469 166.875 237.027344 C 171.878906 234.179688 172.066406 229.046875 167.824219 225.40625 C 165.835938 223.695312 163.859375 221.8125 162.519531 219.683594 C 160.3125 216.203125 161.007812 213.542969 164.09375 210.710938 C 168.300781 206.855469 177.804688 205.949219 182.648438 208.957031 C 186.972656 211.644531 188.5 216.40625 185.976562 220.820312 C 183.007812 225.996094 182.761719 231.332031 184.421875 236.738281 C 185.777344 241.140625 188.285156 242.132812 193.128906 240.894531 C 198.519531 239.515625 200.757812 240.335938 202.226562 244.273438 C 204.101562 249.277344 203.0625 251.925781 198.304688 253.910156 C 192.464844 256.355469 187.03125 255.476562 182.128906 251.867188 C 180.65625 250.789062 179.503906 249.335938 177.558594 247.410156 Z M 177.558594 247.410156 " fill-opacity="1" fill-rule="nonzero"/><g clip-path="url(#a939d574ff)"><path fill="#000000" d="M 94.828125 196.011719 C 88.789062 194.835938 82.761719 193.65625 76.71875 192.488281 C 64.21875 190.074219 51.71875 187.644531 39.207031 185.242188 C 34.503906 184.351562 32.445312 181.476562 31.996094 177.375 C 31.605469 173.824219 33.222656 172.128906 37.085938 172.371094 C 39.609375 172.53125 42.101562 173.191406 44.613281 173.621094 C 59.707031 176.195312 74.832031 178.671875 89.898438 181.402344 C 94.683594 182.265625 99.457031 183.402344 101.589844 188.464844 C 103.609375 193.253906 102.3125 195.625 96.820312 195.855469 C 96.183594 195.882812 95.535156 195.785156 94.902344 195.738281 C 94.871094 195.828125 94.859375 195.925781 94.828125 196.011719 Z M 94.828125 196.011719 " fill-opacity="1" fill-rule="nonzero"/></g><g clip-path="url(#62d15ccb93)"><path fill="#000000" d="M 280.371094 201.910156 C 278.667969 201.910156 276.824219 202.285156 275.296875 201.808594 C 273.652344 201.292969 271.445312 200.199219 271.070312 198.960938 C 270.710938 197.8125 272.039062 195.566406 273.335938 194.777344 C 275.773438 193.296875 278.613281 192.101562 281.453125 191.511719 C 293.261719 189.109375 305.15625 187.027344 316.992188 184.726562 C 322.816406 183.601562 328.613281 182.324219 334.394531 181.027344 C 337.378906 180.351562 339.800781 180.886719 341.820312 183.113281 C 343.5625 185.054688 343.476562 187.140625 342.308594 189.109375 C 341.660156 190.1875 340.433594 191.238281 339.195312 191.714844 C 336.859375 192.605469 334.351562 193.253906 331.855469 193.699219 C 320.164062 195.769531 308.457031 197.78125 296.734375 199.738281 C 291.328125 200.644531 285.878906 201.40625 280.457031 202.238281 C 280.429688 202.140625 280.398438 202.023438 280.371094 201.910156 Z M 280.371094 201.910156 " fill-opacity="1" fill-rule="nonzero"/></g><path fill="#000000" d="M 280.285156 213.757812 C 292.683594 215.328125 305.097656 216.808594 317.46875 218.535156 C 320.367188 218.9375 323.175781 220.058594 325.917969 221.09375 C 329.203125 222.328125 331.683594 228.730469 330.226562 231.707031 C 329.144531 233.933594 326.261719 235.042969 323.121094 233.890625 C 313.097656 230.195312 302.53125 229.492188 291.949219 228.441406 C 287.421875 227.996094 283.050781 226.054688 278.640625 224.730469 C 277.847656 224.5 277.070312 224.070312 276.449219 223.566406 C 274.503906 221.984375 272.585938 220.257812 273.566406 217.585938 C 274.617188 214.707031 277.171875 213.945312 280.285156 213.757812 Z M 280.285156 213.757812 " fill-opacity="1" fill-rule="nonzero"/><path fill="#000000" d="M 95.796875 208.652344 C 97.238281 209.300781 99.890625 210.09375 101.980469 211.558594 C 104.34375 213.210938 106.40625 215.601562 105.511719 218.578125 C 104.648438 221.4375 101.578125 221.710938 98.808594 222.214844 C 86.710938 224.371094 74.644531 226.660156 62.535156 228.757812 C 60.515625 229.101562 58.265625 229.03125 56.277344 228.570312 C 53.148438 227.835938 50.984375 224.832031 50.957031 221.984375 C 50.925781 219.210938 52.398438 217.527344 56.507812 216.621094 C 68.300781 214.03125 80.136719 211.628906 91.960938 209.171875 C 92.796875 209 93.648438 208.941406 95.796875 208.652344 Z M 95.796875 208.652344 " fill-opacity="1" fill-rule="nonzero"/><path fill="#000000" d="M 232.34375 184.4375 C 232.230469 185.601562 232.214844 186.78125 232 187.917969 C 230.847656 194.203125 225.496094 197.753906 218.90625 196.644531 C 210.503906 195.238281 206.480469 190.621094 207.128906 184.003906 C 207.589844 179.246094 210.820312 176.285156 214.09375 173.261719 C 215.03125 172.402344 216.714844 171.925781 218.113281 171.78125 C 225.019531 171.078125 232.777344 178.066406 232.34375 184.4375 Z M 232.34375 184.4375 " fill-opacity="1" fill-rule="nonzero"/><path fill="#000000" d="M 161.105469 176.960938 C 160.847656 183.847656 154.9375 189.929688 148.835938 189.585938 C 141.355469 189.152344 135.820312 184.222656 136.09375 178.210938 C 136.410156 171.507812 141.585938 167.222656 149.023438 167.527344 C 156.480469 167.84375 161.308594 171.609375 161.105469 176.960938 Z M 161.105469 176.960938 " fill-opacity="1" fill-rule="nonzero"/></svg>