<svg xmlns="http://www.w3.org/2000/svg" xmlns:xlink="http://www.w3.org/1999/xlink" width="500" zoomAndPan="magnify" viewBox="0 0 375 374.999991" height="500" preserveAspectRatio="xMidYMid meet" version="1.0"><defs><clipPath id="29c227d0a7"><path d="M 15 43 L 359.890625 43 L 359.890625 318 L 15 318 Z M 15 43 " clip-rule="nonzero"/></clipPath></defs><g clip-path="url(#29c227d0a7)"><path fill="#000000" d="M 256.25 73.78125 C 269.425781 79.71875 279.300781 85.832031 286.828125 92.601562 C 300.496094 104.90625 310.578125 120.363281 333.925781 140.816406 C 343.578125 149.265625 347.59375 159.375 348.011719 169.746094 C 348.460938 180.125 345.054688 190.734375 339.410156 199.164062 C 333.761719 207.613281 325.96875 213.679688 318.167969 215.605469 C 310.730469 217.425781 303.203125 215.378906 295.429688 208.171875 C 291.511719 173.21875 287.007812 137.703125 276.335938 108.714844 C 271.417969 95.265625 264.496094 83.75 256.25 73.78125 Z M 118.683594 73.78125 C 110.457031 83.75 103.515625 95.265625 98.585938 108.714844 C 87.9375 137.699219 83.4375 173.21875 79.515625 208.171875 C 71.742188 215.378906 64.1875 217.425781 56.753906 215.605469 C 48.976562 213.675781 41.183594 207.613281 35.511719 199.164062 C 29.863281 190.734375 26.480469 180.117188 26.910156 169.746094 C 27.355469 159.375 31.367188 149.269531 41.023438 140.816406 C 64.371094 120.367188 74.429688 104.90625 88.113281 92.601562 C 95.628906 85.832031 105.53125 79.71875 118.683594 73.78125 Z M 187.46875 55 C 195.6875 55.070312 205.4375 56.996094 214.78125 59.261719 C 240.253906 65.402344 255.402344 84.605469 265.683594 112.605469 C 275.945312 140.527344 280.648438 176.394531 284.636719 212.132812 C 284.636719 234.019531 283.40625 257.457031 271.351562 274.976562 C 259.703125 291.84375 237.699219 304.621094 193.160156 305.605469 L 193.160156 272.671875 C 210.367188 270.277344 218.140625 257.253906 218.140625 247.84375 C 218.140625 235.320312 204.410156 230.257812 187.445312 230.257812 C 170.507812 230.257812 156.75 235.320312 156.75 247.84375 C 156.75 257.253906 164.546875 270.277344 181.753906 272.671875 L 181.753906 305.605469 C 137.238281 304.597656 115.234375 291.847656 103.605469 274.976562 C 91.53125 257.457031 90.320312 234.019531 90.296875 212.132812 C 94.289062 176.394531 99.011719 140.527344 109.25 112.605469 C 119.535156 84.605469 134.703125 65.402344 160.179688 59.261719 C 169.519531 57 179.265625 55.074219 187.46875 55 Z M 187.445312 43.621094 C 176.914062 44.585938 166.09375 45.84375 157.0625 48.300781 C 115.613281 59.621094 95.515625 70.640625 80.484375 84.148438 C 65.425781 97.707031 55.925781 112.632812 33.523438 132.257812 C 21.601562 142.71875 16.113281 156.140625 15.554688 169.242188 C 14.988281 182.371094 19.136719 195.191406 26.058594 205.523438 C 32.980469 215.84375 42.75 223.851562 54.066406 226.652344 C 62.105469 228.621094 70.890625 227.546875 79.046875 223.046875 C 79.542969 242.5625 82.050781 263.753906 94.238281 281.460938 C 108.800781 302.582031 136.917969 317.132812 187.441406 317.132812 L 187.464844 317.089844 L 187.511719 317.132812 C 238.03125 317.132812 266.148438 302.585938 280.710938 281.460938 C 292.898438 263.757812 295.386719 242.5625 295.902344 223.046875 C 304.058594 227.546875 312.820312 228.625 320.886719 226.652344 C 332.199219 223.851562 341.964844 215.851562 348.871094 205.523438 C 355.792969 195.195312 359.9375 182.371094 359.398438 169.242188 C 358.835938 156.140625 353.351562 142.714844 341.40625 132.257812 C 319.003906 112.628906 309.5 97.707031 294.445312 84.148438 C 279.433594 70.640625 259.316406 59.621094 217.863281 48.300781 C 208.835938 45.84375 198.015625 44.585938 187.507812 43.621094 L 187.460938 43.691406 Z M 187.445312 43.621094 " fill-opacity="1" fill-rule="evenodd"/></g><path fill="#000000" d="M 136.402344 165.777344 C 128.699219 165.777344 122.445312 172.96875 122.46875 181.867188 C 122.46875 190.730469 128.699219 197.949219 136.402344 197.949219 C 144.132812 197.949219 150.382812 190.730469 150.382812 181.867188 C 150.382812 172.96875 144.132812 165.777344 136.402344 165.777344 Z M 136.402344 165.777344 " fill-opacity="1" fill-rule="evenodd"/><path fill="#000000" d="M 238.484375 165.777344 C 246.191406 165.777344 252.441406 172.96875 252.441406 181.867188 C 252.441406 190.730469 246.191406 197.949219 238.484375 197.949219 C 230.773438 197.949219 224.523438 190.730469 224.523438 181.867188 C 224.523438 172.96875 230.773438 165.777344 238.484375 165.777344 Z M 238.484375 165.777344 " fill-opacity="1" fill-rule="evenodd"/></svg>