<svg xmlns="http://www.w3.org/2000/svg" xmlns:xlink="http://www.w3.org/1999/xlink" width="500" zoomAndPan="magnify" viewBox="0 0 375 374.999991" height="500" preserveAspectRatio="xMidYMid meet" version="1.0"><defs><clipPath id="01be7ea41f"><path d="M 85 173 L 290 173 L 290 319.929688 L 85 319.929688 Z M 85 173 " clip-rule="nonzero"/></clipPath><clipPath id="28dd87c3b8"><path d="M 49.925781 56 L 325.175781 56 L 325.175781 179 L 49.925781 179 Z M 49.925781 56 " clip-rule="nonzero"/></clipPath></defs><g clip-path="url(#01be7ea41f)"><path fill="#231f20" d="M 276.566406 300.773438 C 276.566406 304.296875 273.707031 307.101562 270.238281 307.101562 L 225.757812 307.101562 C 222.234375 307.101562 219.425781 304.242188 219.425781 300.773438 L 219.425781 234.820312 C 219.425781 224.304688 210.894531 215.769531 200.378906 215.769531 L 174.945312 215.769531 C 164.429688 215.769531 155.898438 224.304688 155.898438 234.820312 L 155.898438 300.773438 C 155.898438 304.296875 153.035156 307.101562 149.566406 307.101562 L 104.921875 307.101562 C 101.398438 307.101562 98.589844 304.242188 98.589844 300.773438 L 98.589844 173.652344 L 85.875 173.652344 L 85.875 300.773438 C 85.875 311.289062 94.40625 319.820312 104.921875 319.820312 L 149.402344 319.820312 C 159.917969 319.820312 168.449219 311.289062 168.449219 300.773438 L 168.449219 234.820312 C 168.449219 231.296875 171.3125 228.488281 174.78125 228.488281 L 200.214844 228.488281 C 203.738281 228.488281 206.542969 231.351562 206.542969 234.820312 L 206.542969 300.773438 C 206.542969 311.289062 215.078125 319.820312 225.59375 319.820312 L 270.074219 319.820312 C 280.585938 319.820312 289.121094 311.289062 289.121094 300.773438 L 289.121094 173.652344 L 276.402344 173.652344 Z M 276.566406 300.773438 " fill-opacity="1" fill-rule="nonzero"/></g><g clip-path="url(#28dd87c3b8)"><path fill="#231f20" d="M 199.9375 61.457031 C 192.726562 55.289062 182.324219 55.289062 175.109375 61.457031 L 49.925781 168.808594 L 58.183594 178.445312 L 183.421875 71.089844 C 185.847656 69.054688 189.3125 69.054688 191.679688 71.089844 L 316.917969 178.445312 L 325.175781 168.808594 Z M 199.9375 61.457031 " fill-opacity="1" fill-rule="nonzero"/></g></svg>